<?xml version="1.0" encoding="utf-8"?>
<!-- Generator: Adobe Illustrator 19.0.0, SVG Export Plug-In . SVG Version: 6.00 Build 0)  -->
<svg version="1.1"
	 id="svg3725" sodipodi:docname="Paris_Saint-Germain_Logo.svg" inkscape:version="0.91 r13725" xmlns:dc="http://purl.org/dc/elements/1.1/" xmlns:rdf="http://www.w3.org/1999/02/22-rdf-syntax-ns#" xmlns:cc="http://creativecommons.org/ns#" xmlns:svg="http://www.w3.org/2000/svg" xmlns:inkscape="http://www.inkscape.org/namespaces/inkscape" xmlns:sodipodi="http://sodipodi.sourceforge.net/DTD/sodipodi-0.dtd"
	 xmlns="http://www.w3.org/2000/svg" xmlns:xlink="http://www.w3.org/1999/xlink" x="0px" y="0px" viewBox="-129 30 500 500"
	 style="enable-background:new -129 30 500 500;" xml:space="preserve">
<style type="text/css">
	.st0{fill:url(#path620_1_);}
	.st1{fill:#FFFFFF;}
	.st2{fill:url(#path636_1_);}
	.st3{fill:#C2A24E;}
</style>
<sodipodi:namedview  id="namedview3727" inkscape:window-width="1440" inkscape:window-y="1" inkscape:pageshadow="2" inkscape:current-layer="svg3725" inkscape:window-height="788" inkscape:pageopacity="0" inkscape:window-maximized="1" inkscape:window-x="0" borderopacity="1" inkscape:zoom="0.31908058" pagecolor="#ffffff" inkscape:cx="696.50715" objecttolerance="10" bordercolor="#666666" guidetolerance="10" inkscape:cy="345.01583" showgrid="false" gridtolerance="10">
	</sodipodi:namedview>
<g id="g5566" transform="translate(0,80)">
	<g id="g5562">
		
			<radialGradient id="path620_1_" cx="-54.0627" cy="434.4005" r="182.5" gradientTransform="matrix(1.1354 1.1268 1.0165 -1.0243 -340.5901 616.0535)" gradientUnits="userSpaceOnUse">
			<stop  offset="0" style="stop-color:#2277B6"/>
			<stop  offset="0.1045" style="stop-color:#4086C2"/>
			<stop  offset="0.2238" style="stop-color:#1B73B3"/>
			<stop  offset="0.5395" style="stop-color:#124783"/>
			<stop  offset="0.7836" style="stop-color:#003E73"/>
			<stop  offset="1" style="stop-color:#002448"/>
		</radialGradient>
		<path id="path620" inkscape:connector-curvature="0" class="st0" d="M121,17.5C20.4,17.5-61.5,99.4-61.5,200
			c0,100.6,81.9,182.5,182.5,182.5S303.5,300.6,303.5,200C303.5,99.4,221.6,17.5,121,17.5"/>
		<path id="path622" inkscape:connector-curvature="0" class="st1" d="M120.8,30.6c-45.3,0-87.8,17.6-119.8,49.6
			c-32,32-49.6,74.6-49.6,119.8c0,45.3,17.6,87.8,49.6,119.8c32,32,74.5,49.6,119.8,49.6s87.8-17.6,119.8-49.6
			c32-32,49.6-74.6,49.6-119.8c0-45.3-17.6-87.8-49.6-119.8C208.6,48.2,166,30.6,120.8,30.6 M120.8,37.3
			c89.9,0,162.8,72.9,162.8,162.7c0,89.9-72.9,162.7-162.8,162.7S-42,289.9-42,200C-42,110.2,30.9,37.3,120.8,37.3"/>
	</g>
	<g id="g5529">
		<g id="g5422">
			<g id="g5849" transform="matrix(1.25,0,0,-1.25,-4.6035156e-5,519.99996)">
				<g id="g5845">
					
						<linearGradient id="path636_1_" gradientUnits="userSpaceOnUse" x1="-15.1457" y1="273.1119" x2="51.7207" y2="152.8602" gradientTransform="matrix(1.25 0 0 1.25 71.6 -39.9999)">
						<stop  offset="0" style="stop-color:#DD4B44"/>
						<stop  offset="0.2033" style="stop-color:#DE5448"/>
						<stop  offset="0.3452" style="stop-color:#DB3D39"/>
						<stop  offset="0.4852" style="stop-color:#CC2C2E"/>
						<stop  offset="0.7492" style="stop-color:#AE2826"/>
						<stop  offset="1" style="stop-color:#8A211B"/>
					</linearGradient>
					<path id="path636" inkscape:connector-curvature="0" class="st2" d="M96.7,330.1c-2.3,0-4.6-0.1-6.8-0.3
						c-0.5-28.2-7.4-52.4-19.1-72.8h51.8c-11.7,20.5-18.6,44.6-19.1,72.8C101.2,330,99,330.1,96.7,330.1z M69.1,254
						c-9.1-15.2-21-28.3-34.8-39.4c6-9.1,13.8-16.8,23.1-22.5c-0.3,2-0.5,4-0.5,6c0,20.5,17.8,37.2,39.8,37.2
						c22,0,39.8-16.7,39.8-37.2c0-2.1-0.2-4.1-0.5-6c9.2,5.7,17.1,13.4,23.1,22.5c-13.8,11.1-25.6,24.2-34.8,39.4H69.1z"/>
				</g>
				<path id="path640" inkscape:connector-curvature="0" class="st1" d="M107.2,329.3c36.2-5.1,64.1-36.2,64.1-73.8
					c0-12.1-2.9-23.4-8-33.5C130.5,246.7,110.5,281.4,107.2,329.3 M136,192.1c0.3,2,0.5,4,0.5,6c0,20.5-17.8,37.2-39.8,37.2
					c-22,0-39.8-16.7-39.8-37.2c0-2.1,0.2-4.1,0.5-6c-9.2,5.7-17.1,13.4-23.1,22.5c13.8,11.1,25.6,24.2,34.8,39.4h55.2
					c9.2-15.2,21-28.3,34.8-39.4C153.1,205.5,145.2,197.8,136,192.1 M123.5,185.9c-8.3-3.2-17.3-5-26.8-5s-18.4,1.8-26.8,5
					c-3,4.6-4.8,10-4.8,15.9c0,16.5,14.1,30,31.5,30c17.4,0,31.6-13.4,31.6-30C128.2,195.9,126.5,190.5,123.5,185.9 M22.1,255.5
					c0,37.6,27.8,68.7,64.1,73.8c-3.3-47.9-23.2-82.7-56.1-107.3C25,232.1,22.1,243.5,22.1,255.5 M96.7,330.1c2.3,0,4.6-0.1,6.8-0.3
					c0.5-28.2,7.4-52.4,19.1-72.8H70.8c11.7,20.5,18.6,44.6,19.1,72.8C92.1,330,94.4,330.1,96.7,330.1 M96.7,335.5
					c-44.1,0-79.9-35.9-79.9-79.9c0-44.1,35.9-80,79.9-80s80,35.9,80,80C176.6,299.6,140.8,335.5,96.7,335.5"/>
			</g>
			<g id="g5839" transform="matrix(1.25,0,0,-1.25,-4.6035156e-5,519.99996)">
				<path id="path642" sodipodi:nodetypes="ccccccccc" inkscape:connector-curvature="0" class="st3" d="M99.3,192.9l-2.7,3.1
					l-2.7-3.1l-0.1-0.3c0.5-1.1,1.4-2.4,2.5-3.2l0.2-0.1l0.2,0.1c1.1,0.9,2,2.2,2.5,3.2L99.3,192.9"/>
				<path id="path644" inkscape:connector-curvature="0" class="st3" d="M101.9,209.6c0,3-4,12.6-5.2,12.6l-0.3-0.1
					c-1.4-1.2-4.9-9.6-4.9-12.4c0-2.3,4.6-8.3,4.6-11.5l0,0l0.6-0.6l0.6,0.6v0C97.3,201.4,101.9,207.3,101.9,209.6"/>
				<path id="path646" sodipodi:nodetypes="cssaaaaaacccccc" inkscape:connector-curvature="0" class="st3" d="M94.1,198.4
					c-2.2,5.7-5.9,8.8-9.7,8.8c-2.9,0-5.3-2.4-5.3-5.3c0-2.9,2.8-4.8,5.3-5.3c0.8-0.2,1.7,0.3,2.2,0.9c0.4,0.5,0.9,1.3,0.5,1.9
					c-0.1,0.2-0.5,0-0.7,0.1c-0.7,0.4-1.8,0.9-1.8,1.8c0,0.8,0.9,1.7,1.8,1.8c2.8,0.1,4.8-1.7,6.5-5.2v0l0,0l0.6-0.3l0.6,0.7
					L94.1,198.4"/>
				<path id="path648" sodipodi:nodetypes="cccccccaaaaaasc" inkscape:connector-curvature="0" class="st3" d="M108.8,207.2
					c-3.9,0-7.6-3.1-9.7-8.8l-0.1-0.3l0.6-0.7l0.6,0.4l0,0l0,0c1.6,3.6,3.7,5.4,6.5,5.2c0.8,0,1.8-0.9,1.8-1.8c0-0.8-1-1.4-1.8-1.8
					c-0.2-0.1-0.6,0.1-0.7-0.1c-0.3-0.6,0.1-1.4,0.5-1.9c0.5-0.6,1.4-1.1,2.2-0.9c2.4,0.5,5.3,2.4,5.3,5.3S111.8,207.2,108.8,207.2"
					/>
			</g>
		</g>
		<g id="g5507">
			<g id="g5817" transform="matrix(1.25,0,0,-1.25,-4.6035156e-5,519.99996)">
				<path id="path624" inkscape:connector-curvature="0" class="st1" d="M133.3,335.8l12.9,31c-2.1,1-4.3,1.8-6.4,2.7l-12.9-31
					C129,337.6,131.2,336.7,133.3,335.8"/>
				<path id="path626" inkscape:connector-curvature="0" class="st1" d="M96.2,371.1h12.5c3,0,5.5-2.5,5.5-5.5c0-3-2.5-5.5-5.5-5.5
					H96.2L96.2,371.1L96.2,371.1z M96.2,344v10.2h8.5l7.3-11.6c2.9-0.5,5.8-1.2,8.6-2l-8.8,14c5,1.3,9.2,5.8,9.2,11
					c0,6.3-6,11.5-12.3,11.5H89.4v-33.4C91.6,343.9,93.9,344,96.2,344L96.2,344L96.2,344z"/>
				<path id="path628" inkscape:connector-curvature="0" class="st1" d="M15.4,338.3l9.1,10c2.1,2.3,5.6,2.4,7.8,0.4
					c2.3-2.1,2.4-5.6,0.4-7.8l-9.1-10L15.4,338.3z M35.5,319.9l-7.6,6.9l9.4,10.4c4.3,4.7,4.3,12.2-0.4,16.4
					c-4.7,4.3-12.3,3.7-16.5-1l-14-15.4l24.3-22.2C32.3,316.7,33.9,318.3,35.5,319.9"/>
				<path id="path630" inkscape:connector-curvature="0" class="st1" d="M162.6,348c5,1.2,14.2-8,16-14.2c1.5,1.1,4.7,3.5,4.7,3.5
					c-3.9,11.1-19.4,22.2-26.8,15.3c-4.4-4.1-1.9-10.5,1.9-14.5l3.7-3.9c3.8-4,7.1-7.9,4-10.5c-3.2-2.7-12.3,4-17.7,15.6l-4.9-3.7
					c1.2-3,3.8-7.4,7.3-11.1c4-4.2,8.4-7,12.3-7.7c3.1-0.6,6.1-0.1,8.1,1.7c5,4.7,3.2,11.5-4.7,19.8l-3.3,3.4
					C159.7,345.5,161.2,347.7,162.6,348"/>
				<path id="path632" inkscape:connector-curvature="0" class="st1" d="M57.6,349.8l0.6,14.3l9.4-10.8
					C64.2,352.3,60.8,351.1,57.6,349.8 M59.6,371.5c-2.4-0.8-4.7-1.6-7.1-2.5L50,331c2.3,1.4,4.6,2.7,7,3.8l0.4,8.9
					c4.6,2,9.4,3.7,14.3,5l5.8-6.7c2.6,0.6,5.2,1,7.8,1.3L59.6,371.5z"/>
			</g>
			<g id="g5824" transform="matrix(1.25,0,0,-1.25,-4.6035156e-5,519.99996)">
				<path id="path650" inkscape:connector-curvature="0" class="st1" d="M31.7,178.8l-4.3-2l3-2.5C30.4,174.2,31.7,178.8,31.7,178.8
					z M30.1,166.7l-1.6,1.2l1.4,4.5l-4.3,3.6l-4.2-2l-1.4,1.3l12.5,5.9l1.5-1.3L30.1,166.7L30.1,166.7z"/>
				<path id="path652" inkscape:connector-curvature="0" class="st1" d="M42.4,173.5l-7-10.6l-1.5,1l7,10.6L42.4,173.5z"/>
				<path id="path654" inkscape:connector-curvature="0" class="st1" d="M47.9,170l2.2-11.9l0,0l4.4,8.4l1.6-0.8l-5.8-11.1l-1.6,0.7
					l-2.2,12l0,0l-4.5-8.5l-1.5,0.9l5.8,11.1L47.9,170L47.9,170z"/>
				<path id="path656" inkscape:connector-curvature="0" class="st1" d="M69.5,160.8l-0.6-1.7l-4.1,1.4l-3.6-10.2l-1.7,0.6l3.6,10.2
					l-4.1,1.4l0.6,1.7C59.6,164.3,69.5,160.8,69.5,160.8z"/>
				<path id="path658" inkscape:connector-curvature="0" class="st1" d="M97,151.5l5.7-0.1l-0.1-3.3c0-2.2-2.5-3.7-5.7-3.7
					c-3.3,0.1-6.8,2.4-6.7,6.6c0,3.6,2.9,6.5,7,6.4c3,0,4.5-1.6,5.2-2.4l-1.3-1.3c-0.6,0.6-1.6,1.8-3.8,1.8
					c-3.3,0.1-5.3-2.1-5.3-4.7c0-2.5,1.9-4.7,5-4.7c2.2,0,3.7,0.9,3.7,2l0,1.4l-3.9,0.1L97,151.5L97,151.5z"/>
				<path id="path660" inkscape:connector-curvature="0" class="st1" d="M116.5,159l0.3-1.8l-8.4-1.2l0.5-3.3l4.2,0.6l0.3-1.8
					l-4.2-0.6l0.5-3.8l8.7,1.3l0.3-1.8l-10.4-1.5l-1.8,12.4L116.5,159L116.5,159z"/>
				<path id="path662" inkscape:connector-curvature="0" class="st1" d="M123.1,158.8l1.1-3.5l5.3,1.6c1.3,0.4,1.8,1.3,1.5,2.4
					c-0.4,1.4-1.5,1.4-2.5,1.1C128.4,160.5,123.1,158.8,123.1,158.8z M127.9,162.2c1.9,0.6,4,0.2,4.8-2.3c0.8-2.6-0.7-3.9-1.7-4.3
					l3.9-4.2l-1.9-0.7l-3.9,4.3l-4.5-1.3l1.5-5l-1.7-0.5l-3.6,12L127.9,162.2z"/>
				<path id="path664" inkscape:connector-curvature="0" class="st1" d="M155.4,173.9l0.9-4.7l3.2,2.3L155.4,173.9z M166.6,169.4
					l-1.6-1.3l-3.9,2.4l-4.5-3.2l0.9-4.5l-1.6-1l-2.6,13.5l1.6,1.1L166.6,169.4z"/>
				<path id="path666" inkscape:connector-curvature="0" class="st1" d="M162.7,182.5l8.5-9.2l-1.4-1.2l-8.5,9.2
					C161.4,181.3,162.7,182.5,162.7,182.5z"/>
				<path id="path668" inkscape:connector-curvature="0" class="st1" d="M167.7,187.4l12-0.8l0,0l-7.1,6.4l1.2,1.3l9.3-8.4l-1.1-1.3
					l-12.2,0.8l0,0l7.2-6.4l-1.3-1.3l-9.3,8.4L167.7,187.4L167.7,187.4z"/>
				<path id="path670" inkscape:connector-curvature="0" class="st1" d="M146.5,170.6l-1.6-0.8l-0.3-8.9l-7.3,5l-1.6-0.8l5.5-11.3
					l1.6,0.7l-3.8,8l0,0l7.3-4.9l0.3,8.8l0,0l4.3-7.8l1.6,0.9L146.5,170.6L146.5,170.6z"/>
				<path id="path672" inkscape:connector-curvature="0" class="st1" d="M25.4,186.7c-1,3.8-4.9,7.6-7.8,7.6l-1.7-0.6l-1-1.7
					c-0.2-1.1,0.3-2.5,1.2-3.8l1.3-1.8c1-1.4,2-2.8,1.8-4l-0.8-1.1l-0.8-0.2c-1.8,0-4.9,3.2-6.4,7.8l0,0.1l-1.3-1.2l0,0v0
					c0.3-1.2,1.1-3,2.4-4.8c1.4-1.9,3-3.1,4.5-3.6l1.4-0.2l1.7,0.5l1.3,2c0.2,1.5-0.6,3.4-2.3,5.8l-1.2,1.6
					c-0.9,1.3-0.9,2.1-0.7,2.5l1,0.7l0.2,0c2.2,0,5.2-3.6,6-6.3l0-0.1l0.1,0L25.4,186.7L25.4,186.7L25.4,186.7L25.4,186.7z"/>
				<path id="path674" inkscape:connector-curvature="0" class="st1" d="M80.3,150.9l-4.5,1l0.4,1.8l4.5-1L80.3,150.9z"/>
			</g>
		</g>
	</g>
</g>
</svg>
